<svg xmlns="http://www.w3.org/2000/svg" baseProfile="full" version="1.1" width="880px" height="310px" style="fill: none; width: 880px; height: 310px; stroke-width: 31;"><path d="M245,65 L245,65 L245,245 M425,65 L425,65 L425,245 M605,65 L605,65 L605,245 M785,65 L785,65 L785,245 M65,65 L65,65 L65,245 " style="stroke-width: 1; stroke-linecap: round; stroke-linejoin: round; stroke: rgb(221, 221, 221); fill: none;"/><path d="M155,80 A75,75 0 0,1 230,155 A75,75 0 0,1 155,230 A75,75 0 0,1 80,155 A75,75 0 0,1 155,80 Z M590,155 A75,75 0 1,1 515,80 M620,155 A75,75 0 1,1 695,230 M335,230 A75,75 0 1,1 410,155 " style="stroke-width: 30; stroke-linecap: butt; stroke-linejoin: bevel; stroke: rgb(0, 0, 0); fill: none;"/><path d="" style="stroke-width: 31; stroke-linecap: round; stroke-linejoin: round; stroke: rgb(0, 0, 0); fill: none;"/></svg>