<svg xmlns="http://www.w3.org/2000/svg" baseProfile="full" version="1.1" width="850px" height="310px" style="fill: none; width: 850px; height: 310px; stroke-width: 2;"><path d="M245,65 L245,65 L245,215 M425,65 L425,65 L425,215 M605,65 L605,65 L605,215 " style="stroke-width: 2; stroke-linecap: round; stroke-linejoin: round; stroke: rgb(221, 221, 221); fill: none;"/><path d="" style="stroke-width: 5; stroke-linecap: round; stroke-linejoin: round; stroke: rgb(255, 0, 0); fill: none;"/><path d="M575,110 A15,15 0 0,0 560,95 A90,0 0 0,0 470,95 A15,15 0 0,0 455,110 A0,60 0 0,0 455,170 A15,15 0 0,0 470,185 A90,0 0 0,0 560,185 A15,15 0 0,0 575,170 M275,95 A105,0 0 0,1 380,95 A15,15 0 0,1 395,110 A0,15 0 0,1 395,125 A15,15 0 0,1 380,140 A105,0 0 0,1 275,140 M380,140 A15,15 0 0,1 395,155 A0,30 0 0,1 395,185 M635,95 A105,0 0 0,1 740,95 A15,15 0 0,1 755,110 A0,75 0 0,1 755,185 M755,125 A15,15 0 0,1 740,140 A90,0 0 0,0 650,140 A15,15 0 0,0 635,155 A0,0 0 0,0 635,155 A0,15 0 0,0 635,170 A15,15 0 0,0 650,185 A90,0 0 0,0 740,185 A15,15 0 0,0 755,170 M275,95 L275,95 L275,185 M215,170 A15,15 0 0,1 200,185 A90,0 0 0,1 110,185 A15,15 0 0,1 95,170 A0,60 0 0,1 95,110 A15,15 0 0,1 110,95 A90,0 0 0,1 200,95 A15,15 0 0,1 215,110 Z " style="stroke-width: 12; stroke-linecap: square; stroke-linejoin: round; stroke: rgb(0, 0, 0); fill: none;"/></svg>