<svg xmlns="http://www.w3.org/2000/svg" baseProfile="full" version="1.1" style="fill: none;" width="900px" height="300px"><path style="stroke-width: 2px; stroke-linecap: round; stroke-linejoin: round; stroke: rgb(221, 221, 221); fill: none;" d=""/><path style="stroke-width: 25px; stroke-linecap: round; stroke-linejoin: round; stroke: rgb(255, 0, 0); fill: none;" d=""/><path style="stroke-width: 5px; stroke-linecap: square; stroke-linejoin: miter; stroke: rgb(0, 0, 0); fill: none;" d="M585,120 A15,15 0 0,0 570,105 L480,105 A15,15 0 0,0 465,120 L465,180 A15,15 0 0,0 480,195 L570,195 A15,15 0 0,0 585,180 M645,105 L750,105 A15,15 0 0,1 765,120 L765,195 M765,135 A15,15 0 0,1 750,150 L660,150 A15,15 0 0,0 645,165 L645,165 L645,195 L645,195 M225,180 A15,15 0 0,1 210,195 L120,195 A15,15 0 0,1 105,180 L105,120 A15,15 0 0,1 120,105 L210,105 A15,15 0 0,1 225,120 Z M285,195 L285,105 L390,105 A15,15 0 0,1 405,120 L405,135 A15,15 0 0,1 390,150 L285,150 L285,150 L390,150 A15,15 0 0,1 405,165 L405,195 "/></svg>